<svg id="Capa_1" enable-background="new 0 0 512 512" height="512" viewBox="0 0 512 512" width="512" xmlns="http://www.w3.org/2000/svg"><g><path d="m197.614 393.135h77.893c-.1 14.092-.208 27.67-.312 39.754-.071 8.283 6.586 15.057 14.87 15.128.044.001.088.001.132.001 8.223-.001 14.925-6.631 14.997-14.871.062-7.173.186-21.947.317-40.012h8.875c8.284 0 15-6.716 15-15s-6.716-15-15-15h-8.674c.282-46.085.459-97.667-.104-104.43-2.113-25.348-29.113-37.303-47.593-14.633-10.523 12.912-63.102 107.905-73.535 126.816-5.506 9.98 1.724 22.247 13.134 22.247zm78.305-122.067c.145 17.362.012 54.113-.215 92.066h-52.625c21.155-37.985 42.561-75.517 52.84-92.066z"/><path d="m497 58h-51v-43c0-8.284-6.716-15-15-15h-84.667c-8.284 0-15 6.716-15 15v43h-150.666v-43c0-8.284-6.716-15-15-15h-84.667c-8.284 0-15 6.716-15 15v43h-51c-8.284 0-15 6.716-15 15v424c0 8.284 6.716 15 15 15h482c8.284 0 15-6.716 15-15 0-9.304 0-419.081 0-424 0-8.284-6.716-15-15-15zm-135.667-28h54.667v28h-54.667zm-265.333 0h54.667v28h-54.667zm386 452h-452v-283.92h452zm0-313.92h-452v-80.08h452z"/></g></svg>